# xmcd
#
# Track frame offsets: 
#        150
#        8472
#        12674
#        42705
#        46684
#        80526
#        97940
#        105615
#        129533
#        142706
#        145533
#        167094
#        177616
#        180711
#        196144
#        204948
#        218620
#        221097
#        229623
#        240089
#        249153
#        251015
#        253949
#        255714
#        276666
#        294280
#        342581
#
# Disc length: 4762 seconds
#
# Revision: 0
# Processed by: cddbd v1.5.2PL0 Copyright (c) Steve Scherf et al.
# Submitted via: ExactAudioCopy v0.99pb5
#
DISCID=7e12981b
DTITLE=Kiss  - Dynasty Sessions - Disc 3
DYEAR=1900
DGENRE=
TTITLE0=Sure Know Something - Take 1
TTITLE1=Sure Know Something - Take 2
TTITLE2=Dirty Livin' - Take 1
TTITLE3=Dirty Livin' - Take 2
TTITLE4=Dirty Livin' - Take 3
TTITLE5=Dirty Livin' - Take 4
TTITLE6=Dirty Livin' - Take 5
TTITLE7=Dirty Livin' - Take 6
TTITLE8=Dirty Livin' - Take 7
TTITLE9=Dirty Livin' - Take 8
TTITLE10=Dirty Livin' - Take 9
TTITLE11=Dirty Livin' - Take 10
TTITLE12=Dirty Livin' - Take 11
TTITLE13=Dirty Livin' - Take 12
TTITLE14=Dirty Livin' - Take 13
TTITLE15=Dirty Livin' - Take 14
TTITLE16=Dirty Livin' - Take 15
TTITLE17=Dirty Livin' - Take 16
TTITLE18=Dirty Livin' - Take 17
TTITLE19=Dirty Livin' - Take 18
TTITLE20=Dirty Livin' - Take 19
TTITLE21=Dirty Livin' - Take 20
TTITLE22=Dirty Livin' - Take 21
TTITLE23=Dirty Livin' - Take 22
TTITLE24=Dirty Livin' - Take 23
TTITLE25=Dirty Livin' - Take 24
TTITLE26=Dirty Livin' - Take 25
EXTD=
EXTT0=
EXTT1=
EXTT2=
EXTT3=
EXTT4=
EXTT5=
EXTT6=
EXTT7=
EXTT8=
EXTT9=
EXTT10=
EXTT11=
EXTT12=
EXTT13=
EXTT14=
EXTT15=
EXTT16=
EXTT17=
EXTT18=
EXTT19=
EXTT20=
EXTT21=
EXTT22=
EXTT23=
EXTT24=
EXTT25=
EXTT26=
PLAYORDER=
